<svg width="100" height="103" viewBox="0 0 100 103" fill="none" xmlns="http://www.w3.org/2000/svg">
<path d="M63.8752 78.7236C64.4151 79.5875 64.6851 80.7754 64.6851 82.2872C64.6851 85.1669 64.0012 87.3987 62.6333 88.9825C59.3937 92.9421 56.118 96.1098 52.8064 98.4855C49.4947 100.861 45.5712 102.049 41.0356 102.049C35.4922 102.049 31.0287 100.465 27.6451 97.2977C24.2614 94.13 22.5696 89.9184 22.5696 84.663C22.5696 81.8553 24.0094 79.8395 26.8891 78.6156C30.0568 77.2478 32.3246 75.7899 33.6924 74.2421C35.0603 72.6943 35.7442 70.8045 35.7442 68.5727C35.7442 67.2768 35.4742 66.3049 34.9343 65.657C34.3943 65.0091 33.7284 64.6851 32.9365 64.6851C30.9927 64.6851 28.8509 66.089 26.5112 68.8967C24.1714 71.7044 21.9937 75.322 19.9779 79.7495C17.9621 84.177 16.3783 88.7306 15.2264 93.4101C14.4345 96.7937 13.5166 99.0795 12.4727 100.267C11.4288 101.455 9.79096 102.049 7.5592 102.049C5.32743 102.049 3.68961 101.239 2.64572 99.6194C1.60183 97.9996 0.899904 95.4978 0.539943 92.1142C0.179981 88.7306 0 83.7631 0 77.2118C0 66.125 1.13388 54.5702 3.40164 42.5475C5.6694 30.5248 9.01704 20.4278 13.4446 12.2567C17.8721 4.08557 23.1815 0 29.3729 0C32.6845 0 35.3662 1.42185 37.418 4.26555C39.4698 7.10924 40.4957 10.7989 40.4957 15.3344C40.4957 22.6056 38.3719 30.1468 34.1244 37.958C29.8768 45.7691 22.9656 54.8942 13.3906 65.3331C13.1746 69.0767 13.0666 72.9282 13.0666 76.8878C16.5222 67.8888 20.4818 61.3555 24.9453 57.2879C29.4089 53.2203 33.5844 51.1866 37.472 51.1866C41.0716 51.1866 43.9693 52.4104 46.1651 54.8582C48.3609 57.3059 49.4587 60.3296 49.4587 63.9292C49.4587 67.8888 48.4508 71.5244 46.4351 74.836C44.4193 78.1477 40.9636 81.0994 36.0682 83.6911C36.3561 85.6349 37.238 87.2007 38.7139 88.3886C40.1897 89.5765 41.9715 90.1704 44.0593 90.1704C46.2911 90.1704 48.4508 89.3065 50.5386 87.5787C52.6264 85.8509 55.3621 82.9712 58.7458 78.9396C59.6097 77.9317 60.5816 77.4278 61.6614 77.4278C62.5973 77.4278 63.3353 77.8597 63.8752 78.7236ZM22.7856 16.2523C21.2017 19.9599 19.6719 24.9633 18.1961 31.2627C16.7202 37.562 15.5143 44.4193 14.5784 51.8345C19.042 46.579 22.7316 40.8557 25.6473 34.6643C28.563 28.473 30.0208 22.8576 30.0208 17.8181C30.0208 15.5143 29.7688 13.7505 29.2649 12.5267C28.7609 11.3028 28.041 10.6909 27.1051 10.6909C25.8093 10.6909 24.3694 12.5447 22.7856 16.2523ZM61.6101 93.734C58.3344 88.1906 56.6966 80.1635 56.6966 69.6526C56.6966 60.3656 57.8485 50.2687 60.1522 39.3618C62.456 28.455 65.8216 19.168 70.2492 11.5008C74.6767 3.83359 79.9501 0 86.0695 0C89.3811 0 92.0448 1.42185 94.0606 4.26555C96.0764 7.10924 97.0843 10.7989 97.0843 15.3344C97.0843 21.2377 95.9684 27.1051 93.7367 32.9365C91.5049 38.7679 87.7973 44.8872 82.6138 51.2945C86.1415 51.5825 89.2191 52.7704 91.8469 54.8582C94.4746 56.9459 96.4904 59.6457 97.8942 62.9573C99.2981 66.2689 100 69.8686 100 73.7562C100 79.1556 98.9381 84.0151 96.8143 88.3346C94.6906 92.6541 91.9009 96.0198 88.4452 98.4315C84.9896 100.843 81.282 102.049 77.3224 102.049C70.1232 102.049 64.8857 99.2774 61.6101 93.734ZM82.3439 35.5822C85.1876 28.9229 86.6094 23.0016 86.6094 17.8181C86.6094 15.5143 86.3395 13.7505 85.7995 12.5267C85.2596 11.3028 84.5216 10.6909 83.5857 10.6909C82.1459 10.6909 80.5801 12.8326 78.8882 17.1162C77.1964 21.3997 75.6306 27.2131 74.1907 34.5563C72.7509 41.8995 71.671 49.9267 70.9511 58.6378C75.7026 49.9267 79.5002 42.2415 82.3439 35.5822ZM83.9637 86.3908C85.6555 83.7271 86.5014 79.8395 86.5014 74.728C86.5014 70.7685 85.7815 67.7808 84.3417 65.765C82.9018 63.7492 81.174 62.7413 79.1582 62.7413C76.6385 62.7413 74.5147 64.0372 72.7869 66.6289C71.0591 69.2206 70.1952 73.0002 70.1952 77.9677C70.1952 82.2872 70.9151 85.4369 72.3549 87.4167C73.7948 89.3965 75.5946 90.3864 77.7544 90.3864C80.2021 90.3864 82.2719 89.0545 83.9637 86.3908Z" fill="#7B82FE"/>
</svg>
